<?xml version="1.0" standalone="no"?>
<!DOCTYPE svg PUBLIC "-//W3C//DTD SVG 1.1//EN" "http://www.w3.org/Graphics/SVG/1.1/DTD/svg11.dtd" >
<svg xmlns="http://www.w3.org/2000/svg">
<metadata>Generated by IcoMoon</metadata>
<defs>
<font id="ezi" horiz-adv-x="1024">
<font-face units-per-em="1024" ascent="960" descent="-64" />
<missing-glyph horiz-adv-x="1024" />
<glyph unicode="&#x20;" horiz-adv-x="512" d="" />
<glyph unicode="&#xe900;" glyph-name="icon-arrow" d="M780.19 831.269l-384.244-383.269 388.145-388.145c12.163-13.026 19.631-30.573 19.631-49.863 0-40.396-32.747-73.143-73.143-73.143-19.29 0-36.837 7.468-49.906 19.67l0.043-0.039-438.857 438.857c-13.826 13.317-22.417 31.985-22.43 52.66v0.003c0.013 20.678 8.605 39.346 22.408 52.641l0.023 0.022 438.857 438.857c13.396 14.403 32.454 23.384 53.609 23.384 40.396 0 73.143-32.747 73.143-73.143 0-23.834-11.4-45.006-29.045-58.359z" />
<glyph unicode="&#xe901;" glyph-name="icon-chat" d="M976 128h-652.16l-129.92-129.92c-8.679-8.689-20.67-14.068-33.918-14.080h-0.002c-12.996 0.147-24.729 5.435-33.283 13.923l0.003-0.003c-1.886 1.925-3.62 4.016-5.175 6.241-0.105 1.119-1.065 2.079-1.705 3.039-0.951 1.473-1.911 3.203-2.76 4.997-0.12 1.083-0.12 2.043-0.92 3.003-0.687 1.7-1.346 3.783-1.856 5.924-0.674 3.187-1.024 6.487-1.024 9.868 0 0.017 0 0.034 0 0.051v95.997h-64c-26.51 0-48 21.49-48 48v688c0 26.51 21.49 48 48 48h928c26.51 0 48-21.49 48-48v-688c0-26.51-21.49-48-48-48zM929.28 815.040h-833.28v-592h112v-76.16l76.16 76.16h643.84v592zM302.080 580c-46.392 0-84-37.608-84-84s37.608-84 84-84c46.392 0 84 37.608 84 84s-37.608 84-84 84zM512 580c-46.392 0-84-37.608-84-84s37.608-84 84-84c46.392 0 84 37.608 84 84s-37.608 84-84 84zM722.080 580c-46.392 0-84-37.608-84-84s37.608-84 84-84c46.392 0 84 37.608 84 84s-37.608 84-84 84z" />
<glyph unicode="&#xe902;" glyph-name="icon-chat2" d="M539.84 120.32c-39.984 3.095-76.603 8.767-112.251 16.98-135.269-178.26-356.389-143.38-356.389-143.38 156.16 73.92 153.12 196.48 125.28 212.8-122.56 72-196.32 181.76-196.32 304 0.48 216.64 238.4 392.64 539.68 392.64s484.8-176 484.8-392.32-183.68-390.56-484.96-390.56zM272.64 599.36c-53.019 0-96-42.981-96-96s42.981-96 96-96c53.019 0 96 42.981 96 96s-42.981 96-96 96zM512.64 599.36c-53.019 0-96-42.981-96-96s42.981-96 96-96c53.019 0 96 42.981 96 96s-42.981 96-96 96zM752.64 599.36c-53.019 0-96-42.981-96-96s42.981-96 96-96c53.019 0 96 42.981 96 96s-42.981 96-96 96z" />
<glyph unicode="&#xe903;" glyph-name="icon-facebook" horiz-adv-x="480" d="M479.69 959.68v-164.749s-121.402 12.156-151.953-34.389c-15.995-25.432-6.718-99.969-8.157-153.392h160.11c-13.596-62.54-23.353-104.927-33.43-159.15h-127.96v-511.84h-223.93c0 157.871 0 341.973 0 509.921h-94.53v161.709h93.891c4.799 117.723 6.718 234.487 65.1 293.828 65.739 66.859 127.96 58.702 319.9 58.702z" />
<glyph unicode="&#xe904;" glyph-name="icon-heart" d="M736 896c-0.996 0.014-2.172 0.022-3.349 0.022-74.709 0-142.059-31.51-189.484-81.966l-0.126-0.136-30.88-38.88-30.88 36.64c-48.060 51.923-116.572 84.321-192.651 84.321-0.221 0-0.442 0-0.663-0.001-158.983-0.053-287.872-128.975-287.872-288 0-79.466 32.185-151.415 84.23-203.523l382.237-385.437c11.6-11.693 27.675-18.931 45.44-18.931s33.84 7.238 45.436 18.927l382.244 385.444c52.042 52.105 84.227 124.054 84.227 203.52 0 159.025-128.889 287.947-287.901 288z" />
<glyph unicode="&#xe905;" glyph-name="icon-linkedin" d="M796-39.68v355.040c0 72.8-21.12 145.6-106.72 145.6s-121.6-72.8-121.6-147.36v-353.12h-228.64v649.92h228.64v-87.52c60.16 76.48 112 108 208 108s249.12-44.32 249.12-300.96v-369.44h-228zM241.76-39.68h-228.96v649.92h228.96v-649.92zM128 706.56c-70.56 0-128 51.36-128 114.56s57.12 114.72 128 114.72 128-51.36 128-114.72-57.12-114.56-128-114.56z" />
<glyph unicode="&#xe906;" glyph-name="icon-location" horiz-adv-x="768" d="M384-64s-384 428-384 640c0 212.077 171.923 384 384 384s384-171.923 384-384c0-212-384-640-384-640zM384 832c-141.385 0-256-114.615-256-256s114.615-256 256-256c141.385 0 256 114.615 256 256s-114.615 256-256 256zM384 448c-70.692 0-128 57.308-128 128s57.308 128 128 128c70.692 0 128-57.308 128-128s-57.308-128-128-128z" />
<glyph unicode="&#xe907;" glyph-name="icon-lock" horiz-adv-x="832" d="M784-64h-736c-26.51 0-48 21.49-48 48v416c0 26.51 21.49 48 48 48h80v224c0 159.058 128.942 288 288 288s288-128.942 288-288v-224h80c26.51 0 48-21.49 48-48v-416c0-26.51-21.49-48-48-48zM368 173.28v-93.28c0-26.51 21.49-48 48-48s48 21.49 48 48v93.28c28.897 16.908 48 47.792 48 83.138 0 53.019-42.981 96-96 96s-96-42.981-96-96c0-35.346 19.103-66.231 47.547-82.893zM608 672c0 106.039-85.961 192-192 192s-192-85.961-192-192v-224h384v224z" />
<glyph unicode="&#xe908;" glyph-name="icon-medkit" d="M976-16h-928c-26.51 0-48 21.49-48 48v592c0 26.51 21.49 48 48 48h224c0 132.548 107.452 240 240 240s240-107.452 240-240h224c26.51 0 48-21.49 48-48v-592c0-26.51-21.49-48-48-48zM512 816c-79.529 0-144-64.471-144-144h288c0 79.529-64.471 144-144 144zM688 384h-128v128c0 26.51-21.49 48-48 48s-48-21.49-48-48v-128h-128c-26.51 0-48-21.49-48-48s21.49-48 48-48h128v-128c0-26.51 21.49-48 48-48s48 21.49 48 48v128h128c26.51 0 48 21.49 48 48s-21.49 48-48 48z" />
<glyph unicode="&#xe909;" glyph-name="icon-search2" d="M995.84 99.84c17.021-17.311 27.529-41.073 27.529-67.288 0-53.019-42.981-96-96-96-26.255 0-50.049 10.54-67.38 27.62l-281.269 281.269c-55.94-33.528-123.421-53.356-195.533-53.356-212.608 0-384.96 172.352-384.96 384.96s172.352 384.96 384.96 384.96c212.608 0 384.96-172.352 384.96-384.96 0-72.271-19.916-139.891-54.558-197.671zM384 864c-159.058 0-288-128.942-288-288s128.942-288 288-288c159.058 0 288 128.942 288 288s-128.942 288-288 288z" />
<glyph unicode="&#xe90a;" glyph-name="icon-start" d="M1004.16 513.12v0l-257.92-186.56 99.36-304c1.522-4.474 2.4-9.629 2.4-14.988 0-0.018 0-0.037 0-0.055 0 0 0-0.002 0-0.005 0-26.51-21.49-48-48-48-10.581 0-20.362 3.423-28.296 9.223l0.136-0.095-259.84 188.48-259.84-188c-7.804-5.716-17.594-9.147-28.186-9.147-26.51 0-48 21.49-48 48 0 5.389 0.888 10.57 2.526 15.405l99.261 303.662-257.92 186.56c-11.714 8.85-19.206 22.752-19.206 38.404 0 26.287 21.13 47.638 47.332 47.995h320.034l98.88 302.080c6.182 19.857 24.397 34.023 45.92 34.023s39.738-14.166 45.829-33.683l97.371-302.42h320c0.003 0 0.007 0 0.011 0 26.51 0 48-21.49 48-48 0-15.934-7.764-30.055-19.715-38.785z" />
<glyph unicode="&#xe90b;" glyph-name="icon-support" d="M974.452 150.71h-313.806v-82.581l66.065-66.065v-16.516h-429.419v16.516l66.065 66.065v82.581h-313.806c-27.365 0-49.548 22.184-49.548 49.548v660.645c0 27.365 22.184 49.548 49.548 49.548h924.903c27.365 0 49.548-22.184 49.548-49.548v-660.645c0-27.365-22.184-49.548-49.548-49.548zM957.935 844.387h-891.871v-561.548h891.871v561.548zM412.903 613.161c13.677-0.012 26.056-5.565 35.014-14.534l31.051-31.051 97.115 97.115c9.070 9.715 21.953 15.77 36.25 15.77 27.365 0 49.548-22.184 49.548-49.548 0-14.297-6.055-27.18-15.741-36.224l-132.158-132.156c-8.964-8.953-21.343-14.491-35.014-14.491s-26.050 5.537-35.015 14.491l-66.064 66.064c-8.953 8.964-14.491 21.343-14.491 35.014 0 27.349 22.159 49.524 49.502 49.548z" />
<glyph unicode="&#xe90c;" glyph-name="icon-twitter" horiz-adv-x="640" d="M639.6-8.195c-33.615-16.898-72.929-31.72-113.918-42.393-37.589-8.874-75.87-13.424-115.213-13.424-1.239 0-2.477 0.005-3.715 0.014-1.743-0.044-4.022-0.069-6.306-0.069-37.042 0-72.573 6.469-105.525 18.339-33.128 10.708-63.649 27.962-89.841 50.167-22.164 18.238-40.038 41.648-51.756 68.371-9.879 29.204-15.313 61.47-15.313 95.006 0 4.738 0.108 9.451 0.323 14.136l-0.024 358.311h-138.314v145.029c43.84 12.626 82.072 31.838 115.779 56.812 27.23 23.473 50.314 52.687 67.053 85.665 19.002 39.633 31.657 83.847 36.26 130.427l145.001 1.644v-236.812h235.533v-182.766h-235.533v-262.556c0-59.323 0-93.701 5.437-110.331 8.139-18.768 21.58-33.96 38.426-44.054 21.797-13.014 47.562-20.568 75.092-20.568 0.903 0 1.805 0.008 2.704 0.024 57.692 1.241 110.908 19.978 154.705 51.104l-0.856-162.077z" />
<glyph unicode="&#xe90d;" glyph-name="icon-calendar" d="M864 863.999h-127.999v32.001c0 19.199-12.799 32.001-32.001 32.001s-32.001-12.799-32.001-32.001v-32.001h-319.997v32.001c0 19.199-12.799 32.001-32.001 32.001-19.199 0-32.001-12.799-32.001-32.001v-32.001h-127.999c-89.601 0-160-70.399-160-160v-576.001c0-89.601 70.399-160 160-160h704c89.601 0 160 70.399 160 160v576.001c0 89.601-70.399 160-160 160zM63.999 703.999c0 51.2 44.801 96.001 96.001 96.001h127.999v-32.001c0-19.199 12.799-32.001 32.001-32.001 19.199 0 32.001 12.799 32.001 32.001v32.001h320v-32.001c0-19.199 12.799-32.001 32.001-32.001s32.001 12.799 32.001 32.001v32.001h127.999c51.2 0 96.001-44.801 96.001-96.001v-96.001h-896.005v96.001zM960.001 127.998c0-51.2-44.801-96.001-96.001-96.001h-704c-51.2 0-96.001 44.801-96.001 96.001v416.001h896.001v-416.001zM223.999 127.998c19.199 0 32.001 6.4 44.801 19.199s19.199 32.001 19.199 44.801-6.4 32.001-19.199 44.801c-25.598 25.598-63.999 25.598-89.601 0-12.799-12.799-19.199-25.598-19.199-44.801 0-12.799 6.4-32.001 19.199-44.801s25.602-19.199 44.801-19.199zM223.999 320c19.199 0 32.001 6.4 44.801 19.199s19.199 32.001 19.199 44.801-6.4 32.001-19.199 44.801c-25.598 25.598-63.999 25.598-89.601 0-12.799-12.799-19.199-25.598-19.199-44.801s6.4-32.001 19.199-44.801 25.602-19.199 44.801-19.199zM416.001 127.998c19.199 0 32.001 6.4 44.801 19.199s19.199 32.001 19.199 44.801-6.4 32.001-19.199 44.801c-25.598 25.598-63.999 25.598-89.601 0-12.799-12.799-19.199-32.001-19.199-44.801s6.4-32.001 19.199-44.801c12.799-12.799 25.602-19.199 44.801-19.199zM416.001 320c19.199 0 32.001 6.4 44.801 19.199s19.199 32.001 19.199 44.801-6.4 32.001-19.199 44.801c-25.598 25.598-63.999 25.598-89.601 0-12.799-12.799-19.199-32.001-19.199-44.801s6.4-32.001 19.199-44.801c12.799-12.799 25.602-19.199 44.801-19.199zM607.999 127.998c19.199 0 32.001 6.4 44.801 19.199s19.199 25.598 19.199 44.801c0 19.202-6.4 32.001-19.199 44.801-25.598 25.598-63.999 25.598-89.601 0-12.799-12.799-19.199-32.001-19.199-44.801s6.4-32.001 19.199-44.801 25.602-19.199 44.801-19.199zM607.999 320c19.199 0 32.001 6.4 44.801 19.199s19.199 25.598 19.199 44.801c0 12.799-6.4 32.001-19.199 44.801-25.598 25.598-63.999 25.598-89.601 0-12.799-12.799-19.199-32.001-19.199-44.801s6.4-32.001 19.199-44.801 25.602-19.199 44.801-19.199zM800.001 127.998c19.199 0 32.001 6.4 44.801 19.199s19.199 32.001 19.199 44.801-6.4 32.001-19.199 44.801c-25.598 25.598-63.999 25.598-89.601 0-12.799-12.799-19.199-25.598-19.199-44.801 0-12.799 6.4-32.001 19.199-44.801s25.602-19.199 44.801-19.199zM800.001 320c19.199 0 32.001 6.4 44.801 19.199s19.199 25.598 19.199 44.801c0 12.799-6.4 32.001-19.199 44.801-25.598 25.598-63.999 25.598-89.601 0-12.799-12.799-19.199-32.001-19.199-44.801s6.4-32.001 19.199-44.801c12.799-12.799 25.602-19.199 44.801-19.199z" />
<glyph unicode="&#xe90e;" glyph-name="icon-chat3" d="M872.293 596.544h-170.665v82.171c0 82.171-69.53 151.704-151.704 151.704h-398.219c-82.174 0-151.704-69.53-151.704-151.704v-309.728c0-25.282 18.962-50.568 44.247-63.209 12.641-6.321 18.962-6.321 31.606-6.321s31.606 6.321 44.247 18.962l63.209 50.568h139.063v-82.171c0-82.171 69.53-151.704 151.704-151.704h366.617l63.209-50.568c12.641-12.641 25.282-18.962 44.247-18.962 37.927 0 69.53 31.606 75.854 69.53v309.728c-0.004 82.171-69.537 151.704-151.711 151.704zM322.369 444.836v-12.641h-158.024c-6.321 0-12.641 0-18.962-6.321l-69.53-63.209h-6.321c-6.321 0-6.321 0-6.321 6.321v309.728c0 50.568 37.927 88.495 88.495 88.495h398.216c50.568 0 88.495-37.927 88.495-88.495v-82.171h-90.137c-1.896 8.090-6.005 13.971-10.999 18.962-12.641 12.641-31.606 12.641-44.247 0-4.74-4.74-8.594-12.452-10.683-18.962h-8.282c-82.167 0-151.7-69.533-151.7-151.707zM954.467 128.787c0-6.321-6.321-6.321-6.321-6.321l-75.854 63.209c-6.321 6.321-12.641 6.321-18.962 6.321h-379.258c-50.568 0-88.495 37.927-88.495 88.495v158.024c0 50.568 37.927 88.495 88.495 88.495h391.902c50.568 0 88.495-37.927 88.495-88.495v-309.728zM486.718 375.31c-6.321 0-6.321-12.641-6.321-18.962 0-12.641 0-18.962 6.321-25.282s18.962-6.321 25.282-6.321c6.321 0 18.962 6.321 18.962 6.321 6.321 6.321 6.321 18.962 6.321 25.282s0 12.641-6.321 18.962c-12.641 12.637-31.606 12.637-44.244 0zM644.742 375.31c-6.321 0-12.641-12.641-12.641-18.962 0-12.641 6.321-18.962 12.641-25.282s18.962-6.321 25.282-6.321c6.321 0 18.962 6.321 18.962 6.321 0 6.321 6.321 18.962 6.321 25.282s0 12.641-6.321 18.962c-12.641 12.637-31.606 12.637-44.244 0zM802.767 375.31c-6.321 0-12.641-12.641-12.641-18.962 0-12.641 6.321-18.962 12.641-25.282s18.962-6.321 25.282-6.321c6.321 0 18.962 6.321 25.282 0 0 6.321 6.321 18.962 6.321 25.282 0 12.641-6.321 18.962-12.641 25.282-12.641 12.637-31.606 12.637-44.244 0zM328.69 615.505c-6.321-6.321-6.321-18.962-6.321-25.282 0-12.641 0-18.962 6.321-25.282s18.962-6.321 25.282-6.321 18.962 6.321 18.962 6.321c6.321 6.321 12.641 18.962 12.641 25.282 0 12.641-6.321 18.962-12.641 25.282-12.637 12.641-31.603 12.641-44.244 0zM170.665 615.505c-6.321-6.321-6.321-18.962-6.321-25.282 0-12.641 0-18.962 6.321-25.282s18.962-6.321 25.282-6.321 18.962 6.321 18.962 6.321c6.321 6.321 12.641 18.962 12.641 25.282 0 12.641-6.321 18.962-12.641 25.282-12.637 12.641-31.603 12.641-44.244 0z" />
<glyph unicode="&#xe90f;" glyph-name="icon-flag" d="M385.508 26.354h-355.388c-18.069 0-30.119-12.046-30.119-30.119s12.046-30.119 30.119-30.119h355.388c12.046 0 30.119 12.046 30.119 30.119s-12.050 30.119-30.119 30.119zM1017.977 472.092l-102.4 144.565 102.4 216.846c6.023 12.046 0 24.092-6.023 36.142-12.046 6.023-24.092 12.046-36.142 6.023 0 0-78.304-48.188-180.708-48.188s-180.708 48.188-180.708 48.188c-6.023 0-96.377 54.212-210.823 54.212s-210.82-54.208-210.82-54.208c-6.023-6.023-12.046-18.069-12.046-24.092v-710.777h-48.192c-18.069 0-30.119-12.046-30.119-30.119s12.046-30.119 30.119-30.119h150.588c18.069 0 30.119 12.046 30.119 30.119s-12.046 30.119-30.119 30.119h-42.165v295.15c30.119 12.046 90.354 42.165 168.658 42.165 102.4 0 180.708-48.188 180.708-48.188 6.023 0 96.377-54.212 210.823-54.212s210.823 54.212 210.823 54.212c6.023 6.023 12.046 12.046 12.046 18.069 0.003 6.023 0.003 18.069-6.020 24.092zM795.108 435.954c-102.4 0-180.708 48.188-180.708 48.188-6.023 0-96.377 54.212-210.823 54.212-66.258 0-126.496-18.069-168.658-36.142v325.269c30.119 12.046 90.354 42.165 168.658 42.165 102.4 0 180.708-48.188 180.708-48.188 6.023 0 96.377-54.212 210.823-54.212 54.212 0 96.377 12.046 132.519 24.092l-78.304-162.635c-6.023-12.046-6.023-24.092 0-30.119l90.354-132.519c-24.096-12.043-78.311-30.112-144.569-30.112z" />
<glyph unicode="&#xe910;" glyph-name="icon-home" d="M1013.244 477.581l-451.783 349.595c-26.893 21.512-69.917 21.512-96.81 0l-451.783-349.595c-10.756-10.756-16.134-21.512-10.756-32.271s16.134-16.134 26.893-16.134h53.783c16.134 0 26.893-10.756 26.893-26.893v-268.919c0-43.027 37.649-80.676 80.676-80.676h645.404c43.027 0 80.676 37.649 80.676 80.676v268.919c0 16.134 10.756 26.893 26.893 26.893h53.783c10.756 0 21.512 5.378 26.893 16.134-0.006 10.759-0.006 26.893-10.762 32.271zM593.732 111.851h-161.353v236.648c0 16.134 10.756 26.893 26.893 26.893h107.566c16.134 0 26.893-10.756 26.893-26.893v-236.648zM862.651 407.663v-268.919c0-16.134-10.756-26.893-26.893-26.893h-188.243v236.648c0 43.027-37.649 80.676-80.676 80.676h-107.566c-43.027 0-80.676-37.649-80.676-80.676v-236.648h-188.243c-16.134 0-26.893 10.756-26.893 26.893v268.919c0 32.271-26.893 64.542-59.161 75.298l392.622 306.568c10.756 5.378 21.512 5.378 32.271 0l392.622-306.568c-32.274-5.381-59.164-37.652-59.164-75.298z" />
<glyph unicode="&#xe911;" glyph-name="icon-next" d="M699.801 584.403l-363.737 363.737c-15.813 15.813-39.538 15.813-55.352 0s-15.813-39.538 0-55.352l363.737-363.737c47.445-47.445 47.445-118.61 0-166.055l-363.737-363.737c-15.813-15.813-15.813-39.538 0-55.352 7.907-7.907 23.72-7.907 31.627-7.907s23.72 0 23.72 0l363.737 363.737c31.627 39.538 55.352 86.979 55.352 142.33 0 55.356-15.813 102.797-55.347 142.335z" />
<glyph unicode="&#xe912;" glyph-name="icon-notepad" d="M766.41 890.039h-96.738c-3.629 40.896-38.798 69.961-74.987 69.961h-171.725c-41.978 0-71.679-34.091-75.049-69.961h-90.316c-89.044 0-159.006-69.961-159.006-159.006v-636.023c0-89.044 69.961-159.006 159.006-159.006h508.82c89.044 0 159.006 69.961 159.006 159.006v636.023c-0.004 89.041-69.965 159.006-159.009 159.006zM416.596 877.315c0 6.36 6.36 12.72 12.72 12.72h171.725c6.36 0 12.72-6.36 12.72-12.72v-108.124c0-6.36-6.36-12.72-12.72-12.72h-171.725c-6.36 0-12.72 6.36-12.72 12.72v108.124zM861.811 95.006c0-50.882-44.522-95.404-95.404-95.404h-508.816c-50.882 0-95.404 44.522-95.404 95.404v636.027c0 50.882 44.522 95.404 95.404 95.404h89.044v-50.882c0-44.522 38.162-76.325 76.325-76.325h171.725c44.522 0 76.325 31.803 76.325 76.325v50.878h95.404c50.882 0 95.404-44.522 95.404-95.404l-0.007-636.023zM702.805 190.41h-381.613c-19.079 0-31.803-12.72-31.803-31.803s12.72-31.803 31.803-31.803h381.613c19.079 0 31.803 12.72 31.803 31.803s-12.72 31.803-31.803 31.803zM702.805 381.219h-381.613c-19.079 0-31.803-12.72-31.803-31.803 0-19.079 12.72-31.803 31.803-31.803h381.613c19.079 0 31.803 12.72 31.803 31.803 0 19.079-12.72 31.803-31.803 31.803zM702.805 572.027h-381.613c-19.079 0-31.803-12.72-31.803-31.803 0-19.079 12.72-31.803 31.803-31.803h381.613c19.079 0 31.803 12.72 31.803 31.803 0 19.079-12.72 31.803-31.803 31.803z" />
<glyph unicode="&#xe913;" glyph-name="icon-plus" d="M984.614 487.386h-433.232v433.227c0 23.629-15.753 39.386-39.386 39.386s-39.386-15.753-39.386-39.386v-433.232h-433.223c-23.629 0-39.386-15.753-39.386-39.386s15.753-39.386 39.386-39.386h433.232v-433.232c0-23.629 15.753-39.386 39.386-39.386s39.386 15.753 39.386 39.386v433.232h433.232c23.629 0 39.386 15.753 39.386 39.386s-15.766 39.391-39.395 39.391z" />
<glyph unicode="&#xe914;" glyph-name="icon-search" d="M1013.068-3.872l-305.453 305.453c58.524 69.82 94.092 159.175 94.092 255.746 0 218.649-182.206 400.856-400.856 400.856s-400.851-182.21-400.851-400.86 182.206-400.856 400.856-400.856c94.745 0 182.499 34.257 251.737 90.812l302.169-302.169c7.288-7.288 14.575-7.288 29.151-7.288s21.863 0 29.151 7.288c14.584 14.575 14.584 36.439 0.004 51.018zM400.856 229.349c-182.206 0-327.97 145.763-327.97 327.97s145.763 327.97 327.97 327.97 327.97-145.763 327.97-327.97-145.763-327.97-327.97-327.97z" />
<glyph unicode="&#xe915;" glyph-name="icon-user" d="M697.29 469.194c43.487 52.042 70.709 121.648 70.709 199.162 0 162.025-116.658 291.644-259.241 291.644s-259.241-129.619-259.241-291.644c0-77.838 27.416-147.701 71.16-199.81-131.369-25.017-233.185-141.999-233.185-279.785v-220.354c0-19.442 12.961-32.407 32.407-32.407s32.407 12.961 32.407 32.407v220.354c0 123.138 97.216 220.354 220.354 220.354h19.639c35.192-20.026 74.404-32.407 116.464-32.407s81.271 12.38 116.527 32.407c0.067 0 0.067 0 0.13 0h19.442c123.138 0 220.354-97.216 220.354-220.354v-220.354c0-19.442 12.961-32.407 32.407-32.407 19.442 0 32.407 12.961 38.887 32.407v220.354c-0.004 139.861-104.996 257.815-239.219 280.433zM314.33 668.356c0 123.138 84.251 226.835 194.432 226.835s194.432-103.696 194.432-226.835-84.251-226.835-194.432-226.835-194.432 103.693-194.432 226.835z" />
<glyph unicode="&#xe916;" glyph-name="icon-wallet" d="M975.238 580.146v133c0 85.335-67.047 152.381-152.381 152.381h-670.476c-85.335-0.004-152.381-67.050-152.381-152.385v-530.288c0-85.335 67.047-152.381 152.381-152.381h670.476c85.335 0 152.381 67.047 152.381 152.381v126.902c28.709 18.957 48.762 51.382 48.762 86.431v97.524c0 35.112-20.053 67.477-48.762 86.434zM963.048 396.191c0-24.379-18.284-42.667-42.667-42.667h-310.857c-24.379 0-42.667 18.284-42.667 42.667v97.524c0 24.379 18.284 42.667 42.667 42.667h310.857c24.379 0 42.667-18.284 42.667-42.667v-97.524zM822.857 91.428h-670.476c-48.762 0-91.429 42.667-91.429 91.429v530.284c0 48.762 42.667 91.429 91.429 91.429h670.476c48.762 0 91.429-42.667 91.429-91.429v-115.809h-304.762c-54.857 0-103.619-48.762-103.619-103.619v-97.524c0-54.857 48.762-103.619 103.619-103.619h304.762v-109.714c0-48.762-42.667-91.429-91.429-91.429zM615.619 469.335c-6.095-6.095-6.095-18.284-6.095-24.379s0-12.19 6.095-18.284c6.095-6.095 18.284-12.19 24.379-12.19s12.19 6.095 18.284 12.19c6.095 0 12.19 12.19 12.19 18.284 0 12.19-6.095 18.284-12.19 24.379-12.186 12.19-30.474 12.19-42.664 0z" />
<glyph unicode="&#xe917;" glyph-name="icon-grip" d="M102.4 960c56.525 0 102.4-45.875 102.4-102.4s-45.875-102.4-102.4-102.4-102.4 45.875-102.4 102.4 45.875 102.4 102.4 102.4zM102.4 140.8c56.525 0 102.4-45.773 102.4-102.4s-45.875-102.4-102.4-102.4-102.4 45.773-102.4 102.4 45.875 102.4 102.4 102.4zM921.6 960c56.627 0 102.4-45.875 102.4-102.4s-45.773-102.4-102.4-102.4-102.4 45.875-102.4 102.4 45.773 102.4 102.4 102.4zM921.6 140.8c56.627 0 102.4-45.773 102.4-102.4s-45.773-102.4-102.4-102.4-102.4 45.773-102.4 102.4 45.773 102.4 102.4 102.4z" />
<glyph unicode="&#xe918;" glyph-name="icon-fileok" d="M903.531 568.469c0 10.239-4.157 18.191-10.842 23.494-3.496 6.625-7.591 13.012-13.251 18.672l-325.273 325.269c-4.998 3.372-10.603 6.625-16.384 9.699-4.94 8.792-13.853 14.397-25.782 14.397-3.496 0-6.567-0.845-9.516-1.686-4.818 0.903-9.699 1.686-14.577 1.686h-216.85c-84.327 0-150.588-66.258-150.588-150.588v-722.823c0-84.331 66.258-150.588 150.588-150.588h481.884c84.331 0 150.588 66.258 150.588 150.588v457.788c0 5.843-0.422 11.624-1.205 17.346 0.481 2.226 1.205 4.275 1.205 6.747zM807.154 598.585h-174.681c-48.188 0-90.354 42.165-90.354 90.354v174.681l265.035-265.035zM752.942-3.769h-481.884c-48.188 0-90.354 42.165-90.354 90.354v722.823c0 48.188 42.165 90.354 90.354 90.354h210.823v-210.823c0-84.331 66.258-150.588 150.588-150.588h210.823v-451.765c0.003-48.188-42.162-90.354-90.35-90.354zM638.496 387.762l-162.635-162.635c0-6.023-6.023-6.023-12.046-6.023 0 0-6.023 0-12.046 6.023l-66.258 66.258c-12.046 12.046-30.119 12.046-42.165 0s-12.046-30.119 0-42.165l66.258-66.258c12.046-18.069 30.119-24.092 54.212-24.092s42.165 12.046 54.212 24.092l162.635 162.635c12.046 12.046 12.046 30.119 0 42.165s-30.119 12.046-42.165 0z" />
<glyph unicode="&#xe919;" glyph-name="icon-diamond" d="M1017.109 558.364l-226.686 286.343c-5.965 5.965-11.93 11.93-23.86 11.93h-507.067c-11.93 0-17.895-5.965-23.86-11.93l-226.689-286.343c-11.93-11.93-11.93-29.829 0-41.759l465.308-465.308c11.93-5.965 23.86-11.93 35.794-11.93s23.86 5.965 41.759 11.93l465.305 465.305c5.962 11.934 11.93 29.829-0.003 41.762zM922.080 570.29h-229.672l-63.055 220.724h119.308l173.418-220.724zM335.020 510.636l112.866-343.433-343.433 343.433h230.566zM627.386 510.636l-117.34-351.962-117.34 351.962h234.68zM394.674 570.29l61.029 220.724h108.632l61.029-220.724h-230.69zM697.002 510.636h218.694l-325.654-325.654 106.959 325.654zM271.427 791.014h131.241l-63.055-220.724h-241.602l173.415 220.724z" />
<glyph unicode="&#xe91a;" glyph-name="icon-id" d="M210.823 417.881h271.058c18.069 0 30.119 12.046 30.119 30.119 0 18.069-12.046 30.119-30.119 30.119h-271.058c-18.069 0-30.119-12.046-30.119-30.119 0.003-18.069 12.050-30.119 30.119-30.119zM210.823 568.469h271.058c18.069 0 30.119 12.046 30.119 30.119 0 18.069-12.046 30.119-30.119 30.119h-271.058c-18.069 0-30.119-12.046-30.119-30.119 0.003-18.069 12.050-30.119 30.119-30.119zM933.65 809.412h-843.296c-48.188 0-90.354-42.165-90.354-90.354v-542.119c0-48.188 42.165-90.354 90.354-90.354h843.296c48.188 0 90.354 42.165 90.354 90.354v542.119c-0.003 48.188-42.169 90.354-90.354 90.354zM963.765 176.939c0-18.069-12.046-30.119-30.119-30.119h-843.292c-18.069 0-30.119 12.046-30.119 30.119v542.119c0 18.069 12.046 30.119 30.119 30.119h843.296c18.069 0 30.119-12.046 30.119-30.119v-542.119zM813.177 327.527h-602.354c-18.069 0-30.119-12.046-30.119-30.119s12.046-30.119 30.119-30.119h602.354c18.069 0 30.119 12.046 30.119 30.119s-12.050 30.119-30.119 30.119zM813.177 640.754h-156.612c-18.069 0-30.119-12.046-30.119-30.119v-180.708c0-18.069 12.046-30.119 30.119-30.119h156.612c18.069 0 30.119 12.046 30.119 30.119v180.708c0 18.069-12.050 30.119-30.119 30.119zM783.061 460.046h-96.377v120.469h96.377v-120.469z" />
<glyph unicode="&#xe91b;" glyph-name="icon-medal" d="M859.65 65.774l-136.154 356.12 103.713 49.423c16.221 5.407 21.628 21.628 16.221 32.444l-43.258 118.961 43.258 118.961c5.407 10.814-5.407 27.037-16.221 32.444l-113.554 54.072-54.075 113.551c-5.407 16.221-21.628 21.628-32.444 16.221l-118.961-43.258-118.957 43.258c-10.814 5.407-27.037-5.407-32.444-16.221l-54.072-113.551-113.554-54.075c-16.221-5.407-21.628-21.628-16.221-32.444l43.258-118.961-43.258-118.957c-5.407-10.814 5.407-27.037 16.221-32.444l102.199-48.665-129.234-351.472c0-10.814 0-21.628 5.407-27.037 5.407-10.814 16.221-10.814 27.037-10.814l129.774 21.628 81.109-102.737c5.407-5.407 10.814-10.814 21.628-10.814h5.407c10.814 0 16.221 5.407 21.628 16.221l54.774 148.916 58.776-154.323c5.407-10.814 10.814-16.221 21.628-16.221h5.407c10.814 0 16.221 5.407 21.628 10.814l81.109 102.737 129.774-21.628c10.814 0 21.628 5.407 27.037 10.814 5.413 5.41 10.82 16.224 5.413 27.037zM237.815 736.273l102.737 48.665c5.407 0 10.814 5.407 10.814 10.814l48.665 102.737 102.737-37.851c5.407 0 10.814 0 16.221 0l102.737 37.851 48.665-102.737c0-5.407 5.407-10.814 10.814-10.814l102.737-48.665-37.851-102.737c0-5.407 0-10.814 0-16.221l37.851-102.737-102.737-48.665c-5.407 0-10.814-5.407-10.814-10.814l-48.665-102.737-102.737 37.851c-5.407 0-5.407 0-10.814 0s-5.407 0-5.407 0l-102.737-37.851-48.665 102.737c0 5.407-5.407 10.814-10.814 10.814l-102.737 48.665 37.851 102.737c0 5.407 0 10.814 0 16.221l-37.851 102.737zM421.662 17.109l-64.889 81.109c-5.407 10.814-16.221 10.814-27.037 10.814l-102.737-16.221 100.142 273.119 29.632-62.238c5.407-16.221 21.628-21.628 32.444-16.221l118.961 43.258 25.142-9.139-111.658-304.482zM686.617 114.439c-10.814 0-21.628-5.407-27.037-10.814l-64.889-81.109-58.018 159.621 44.827 121.934 45.638-16.6c5.407 0 5.407 0 10.814 0s16.221 5.407 21.628 16.221l30.766 64.562 99.005-270.036-102.734 16.221z" />
<glyph unicode="&#xe91c;" glyph-name="icon-money" d="M398.22 192.002c79.645 0 142.222 62.577 142.222 142.222s-62.577 142.222-142.222 142.222-142.222-62.577-142.222-142.222 62.58-142.222 142.222-142.222zM398.22 419.558c45.511 0 85.334-39.823 85.334-85.334s-39.823-85.334-85.334-85.334-85.334 39.823-85.334 85.334c0.003 45.508 39.826 85.334 85.334 85.334zM995.554 789.332h-739.556c-17.065 0-28.446-11.377-28.446-28.446v-85.334h-85.331c-17.065 0-28.446-11.377-28.446-28.446v-85.334h-85.331c-17.065 0-28.446-11.377-28.446-28.446v-398.22c0-17.065 11.377-28.446 28.446-28.446h739.556c17.065 0 28.446 11.377 28.446 28.446v85.334h85.334c17.065 0 28.446 11.377 28.446 28.446v85.334h85.334c17.065 0 28.446 11.377 28.446 28.446v398.224c-0.007 17.065-11.387 28.442-28.452 28.442zM739.556 163.556h-682.668v341.332h682.664v-341.332zM853.336 277.336h-56.888v255.998c0 17.065-11.377 28.446-28.446 28.446h-597.331v56.888h682.664v-341.332zM967.112 391.112h-56.888v255.998c0 17.065-11.377 28.446-28.446 28.446h-597.331v56.888h682.664v-341.332z" />
<glyph unicode="&#xe91d;" glyph-name="icon-file" d="M879.438 610.635l-325.273 325.273c-18.069 12.046-42.165 24.092-66.258 24.092h-216.85c-84.327 0-150.588-66.258-150.588-150.588v-722.823c0-84.331 66.258-150.588 150.588-150.588h481.884c84.331 0 150.588 66.258 150.588 150.588v457.788c0 24.092-6.023 48.188-24.092 66.258zM542.119 863.623l265.035-265.035h-174.681c-48.188 0-90.354 42.165-90.354 90.354v174.681zM752.942-3.765h-481.884c-48.188 0-90.354 42.165-90.354 90.354v722.823c0 48.188 42.165 90.354 90.354 90.354h210.823v-210.823c0-84.331 66.258-150.588 150.588-150.588h210.823v-451.765c0.003-48.188-42.162-90.354-90.35-90.354zM692.708 146.823h-361.412c-18.069 0-30.119-12.046-30.119-30.119 0-18.069 12.046-30.119 30.119-30.119h361.412c18.069 0 30.119 12.046 30.119 30.119-0.003 18.069-12.050 30.119-30.119 30.119zM692.708 297.412h-361.412c-18.069 0-30.119-12.046-30.119-30.119s12.046-30.119 30.119-30.119h361.412c18.069 0 30.119 12.046 30.119 30.119s-12.050 30.119-30.119 30.119zM692.708 448h-361.412c-18.069 0-30.119-12.046-30.119-30.119s12.046-30.119 30.119-30.119h361.412c18.069 0 30.119 12.046 30.119 30.119s-12.050 30.119-30.119 30.119z" />
<glyph unicode="&#xe91e;" glyph-name="icon-usermore" horiz-adv-x="1057" d="M1057.152-14.33c0-0.033 0.017-0.066 0.017-0.116 0-27.37-22.184-49.554-49.554-49.554h-30.261c8.507 14.618 13.743 31.401 13.743 49.554 24.76 0 47.109 9.382 64.486 24.414 1.536-14.932 1.602-24.298 1.602-24.298h-0.033zM991.096 35.108h-49.554v-49.554c0-27.37-22.184-49.554-49.554-49.554s-49.554 22.184-49.554 49.554v49.554h-49.554c-27.37 0-49.554 22.184-49.554 49.554s22.184 49.554 49.554 49.554h49.554v49.554c0 27.37 22.184 49.554 49.554 49.554s49.554-22.184 49.554-49.554v-49.554h49.554c27.37 0 49.554-22.184 49.554-49.554s-22.184-49.554-49.554-49.554zM792.88 183.77c-54.741 0-99.108-44.384-99.108-99.108 0-54.741 44.367-99.108 99.108-99.108 0-18.153 5.236-34.936 13.743-49.554h-757.053c-27.37 0-49.554 22.184-49.554 49.554 0 0.050 0.017 0.083 0.017 0.116h-0.033c0 0 0 180.575 131.946 246.25 83.482 41.526 51.338 7.813 153.849 50.33 102.494 42.418 126.776 57.251 126.776 57.251l0.958 97.853c0 0-38.388 29.352-50.314 121.424-24.017-6.938-31.962 28.213-33.366 50.578-1.288 21.606-13.908 89.131 15.395 83.036-5.996 45.078-10.291 85.695-8.193 107.251 7.351 75.603 80.162 154.575 192.319 160.357 131.929-5.765 184.192-84.704 191.51-160.291 2.147-21.539-2.56-62.223-8.556-107.218 29.319 6.013 16.568-61.381 15.147-83.003-1.305-22.365-9.415-57.4-33.366-50.479-11.976-92.055-50.363-121.193-50.363-121.193l0.892-97.357c0 0 24.281-13.859 126.776-56.326 29.584-12.256 47.77-18.252 60.935-21.688-23.835-18.087-39.461-46.449-39.461-78.675z" />
<glyph unicode="&#xe91f;" glyph-name="icon-notify" horiz-adv-x="856" d="M800.582 103.564h-744.727c-30.85 0-55.855 25.004-55.855 55.855s25.004 55.855 55.855 55.855 55.855 25.004 55.855 55.855v372.364c0 143.937 116.699 260.655 260.655 260.655 0 30.85 25.004 55.855 55.855 55.855s55.855-25.004 55.855-55.855c143.956 0 260.655-116.717 260.655-260.655v-372.364c0-30.85 25.004-55.855 55.855-55.855s55.855-25.004 55.855-55.855c0-30.85-25.004-55.855-55.855-55.855zM428.218-64c-61.701 0-111.709 50.008-111.709 111.709h223.418c0-61.701-50.008-111.709-111.709-111.709z" />
<glyph unicode="&#xe920;" glyph-name="icon-warning" horiz-adv-x="204" d="M27.743 381.037l-21.654 323.973c-4.054 63.121-6.089 108.447-6.089 135.945 0 37.43 9.817 66.621 29.419 87.591 19.618 20.97 45.44 31.455 77.464 31.455 38.765 0 64.684-13.432 77.774-40.246 13.074-26.831 19.618-65.498 19.618-116.001 0-29.761-1.596-59.979-4.738-90.635l-29.094-333.432c-3.142-39.676-9.915-70.105-20.286-91.303-10.371-21.181-27.498-31.764-51.431-31.764-24.324 0-41.239 10.241-50.715 30.755-9.459 20.53-16.216 51.757-20.27 93.664zM102.814-63.984c-27.515 0-51.529 8.906-72.043 26.717s-30.771 42.705-30.771 74.713c0 27.954 9.817 51.741 29.419 71.359 19.618 19.618 43.616 29.419 72.043 29.419 28.41 0 52.636-9.801 72.694-29.419s30.12-43.405 30.12-71.359c0-31.569-10.143-56.381-30.461-74.403-20.286-18.023-43.942-27.026-71.001-27.026z" />
<glyph unicode="&#xe921;" glyph-name="icon-checked" d="M1012.185 757.17c-15.753 15.753-39.386 15.753-55.139 0l-504.119-519.876c-23.629-15.753-55.139-31.505-86.645-31.505s-63.015 7.876-86.645 31.505l-212.675 212.675c-15.753 15.753-39.386 15.753-55.139 0s-15.753-39.386 0-55.139l212.675-212.675c39.386-31.505 86.645-55.139 141.784-55.139s110.278 23.629 141.784 55.139l504.115 519.876c15.757 15.753 15.757 39.386 0.005 55.139z" />
<glyph unicode="&#xe922;" glyph-name="icon-quickaccess" d="M971.034-64h-353.103c-29.255 0-52.966 23.711-52.966 52.966v353.103c0 29.255 23.711 52.966 52.966 52.966h353.103c29.255 0 52.966-23.711 52.966-52.966v-353.103c0-29.255-23.711-52.966-52.966-52.966zM971.034 500.966h-353.103c-29.255 0-52.966 23.711-52.966 52.966v353.103c0 29.255 23.711 52.966 52.966 52.966h353.103c29.255 0 52.966-23.711 52.966-52.966v-353.103c0-29.255-23.711-52.966-52.966-52.966zM406.069-64h-353.103c-29.255 0-52.966 23.711-52.966 52.966v353.103c0 29.255 23.711 52.966 52.966 52.966h353.103c29.255 0 52.966-23.711 52.966-52.966v-353.103c0-29.255-23.711-52.966-52.966-52.966zM406.069 500.966h-353.103c-29.255 0-52.966 23.711-52.966 52.966v353.103c0 29.255 23.711 52.966 52.966 52.966h353.103c29.255 0 52.966-23.711 52.966-52.966v-353.103c0-29.255-23.711-52.966-52.966-52.966z" />
</font>
</defs>
</svg>
